<?xml version="1.0" encoding="UTF-8" standalone="no"?>
<!DOCTYPE svg PUBLIC "-//W3C//DTD SVG 1.1//EN"
 "http://www.w3.org/Graphics/SVG/1.1/DTD/svg11.dtd">
<!-- Generated by graphviz version 2.47.0 (20210316.0004)
 -->
<!-- Title: dependencies Pages: 1 -->
<svg width="1499pt" height="284pt"
 viewBox="0.00 0.00 1499.00 284.00" xmlns="http://www.w3.org/2000/svg" xmlns:xlink="http://www.w3.org/1999/xlink">
<g id="graph0" class="graph" transform="scale(1 1) rotate(0) translate(4 280)">
<title>dependencies</title>
<polygon fill="white" stroke="transparent" points="-4,4 -4,-280 1495,-280 1495,4 -4,4"/>
<text text-anchor="start" x="724.51" y="-42.4" font-family="Times-12" font-weight="bold" font-size="14.00">Legend</text>
<polygon fill="#ffffb3" stroke="transparent" points="511.5,-10 511.5,-30 531.5,-30 531.5,-10 511.5,-10"/>
<text text-anchor="start" x="535.13" y="-15.4" font-family="Times-12" font-size="14.00"> &#160;Declarations</text>
<polygon fill="#8dd3c7" stroke="transparent" points="624.5,-10 624.5,-30 644.5,-30 644.5,-10 624.5,-10"/>
<text text-anchor="start" x="648.23" y="-15.4" font-family="Times-12" font-size="14.00"> &#160;Module</text>
<polygon fill="#80b1d3" stroke="transparent" points="710.5,-10 710.5,-30 730.5,-30 730.5,-10 710.5,-10"/>
<text text-anchor="start" x="734.28" y="-15.4" font-family="Times-12" font-size="14.00"> &#160;Bootstrap</text>
<polygon fill="#fdb462" stroke="transparent" points="807.5,-10 807.5,-30 827.5,-30 827.5,-10 807.5,-10"/>
<text text-anchor="start" x="831.17" y="-15.4" font-family="Times-12" font-size="14.00"> &#160;Providers</text>
<polygon fill="#fb8072" stroke="transparent" points="903.5,-10 903.5,-30 923.5,-30 923.5,-10 903.5,-10"/>
<text text-anchor="start" x="927.23" y="-15.4" font-family="Times-12" font-size="14.00"> &#160;Exports</text>
<g id="clust1" class="cluster">
<title>cluster_Nmce_UI_Lazy_ServicesModule</title>
<polygon fill="none" stroke="black" stroke-dasharray="1,5" points="8,-70 8,-268 1483,-268 1483,-70 8,-70"/>
</g>
<g id="clust3" class="cluster">
<title>cluster_Nmce_UI_Lazy_ServicesModule_imports</title>
<polygon fill="none" stroke="black" points="16,-78 16,-130 1475,-130 1475,-78 16,-78"/>
</g>
<g id="clust4" class="cluster">
<title>cluster_Nmce_UI_Lazy_ServicesModule_exports</title>
<polygon fill="none" stroke="black" points="114,-208 114,-260 1378,-260 1378,-208 114,-208"/>
</g>
<!-- DataComponentPrintDialog -->
<g id="node1" class="node">
<title>DataComponentPrintDialog</title>
<polygon fill="#8dd3c7" stroke="black" points="1466.59,-122 1463.59,-126 1442.59,-126 1439.59,-122 1293.41,-122 1293.41,-86 1466.59,-86 1466.59,-122"/>
<text text-anchor="middle" x="1380" y="-99.8" font-family="Times,serif" font-size="14.00">DataComponentPrintDialog</text>
</g>
<!-- Nmce_UI_Lazy_ServicesModule -->
<g id="node8" class="node">
<title>Nmce_UI_Lazy_ServicesModule</title>
<polygon fill="#8dd3c7" stroke="black" points="786.15,-187 783.15,-191 762.15,-191 759.15,-187 581.85,-187 581.85,-151 786.15,-151 786.15,-187"/>
<text text-anchor="middle" x="684" y="-164.8" font-family="Times,serif" font-size="14.00">Nmce_UI_Lazy_ServicesModule</text>
</g>
<!-- DataComponentPrintDialog&#45;&gt;Nmce_UI_Lazy_ServicesModule -->
<g id="edge1" class="edge">
<title>DataComponentPrintDialog&#45;&gt;Nmce_UI_Lazy_ServicesModule</title>
<path fill="none" stroke="black" d="M1331.88,-122.11C1331.88,-141.34 1331.88,-169 1331.88,-169 1331.88,-169 796.3,-169 796.3,-169"/>
<polygon fill="black" stroke="black" points="796.3,-165.5 786.3,-169 796.3,-172.5 796.3,-165.5"/>
</g>
<!-- HtmlFramePrintDialogComponent -->
<g id="node2" class="node">
<title>HtmlFramePrintDialogComponent</title>
<polygon fill="#8dd3c7" stroke="black" points="1275.7,-122 1272.7,-126 1251.7,-126 1248.7,-122 1064.3,-122 1064.3,-86 1275.7,-86 1275.7,-122"/>
<text text-anchor="middle" x="1170" y="-99.8" font-family="Times,serif" font-size="14.00">HtmlFramePrintDialogComponent</text>
</g>
<!-- HtmlFramePrintDialogComponent&#45;&gt;Nmce_UI_Lazy_ServicesModule -->
<g id="edge2" class="edge">
<title>HtmlFramePrintDialogComponent&#45;&gt;Nmce_UI_Lazy_ServicesModule</title>
<path fill="none" stroke="black" d="M1119.88,-122.02C1119.88,-139.37 1119.88,-163 1119.88,-163 1119.88,-163 796.19,-163 796.19,-163"/>
<polygon fill="black" stroke="black" points="796.19,-159.5 786.19,-163 796.19,-166.5 796.19,-159.5"/>
</g>
<!-- HtmlHRefFramePrintDialogComponent -->
<g id="node3" class="node">
<title>HtmlHRefFramePrintDialogComponent</title>
<polygon fill="#8dd3c7" stroke="black" points="1046.52,-122 1043.52,-126 1022.52,-126 1019.52,-122 805.48,-122 805.48,-86 1046.52,-86 1046.52,-122"/>
<text text-anchor="middle" x="926" y="-99.8" font-family="Times,serif" font-size="14.00">HtmlHRefFramePrintDialogComponent</text>
</g>
<!-- HtmlHRefFramePrintDialogComponent&#45;&gt;Nmce_UI_Lazy_ServicesModule -->
<g id="edge3" class="edge">
<title>HtmlHRefFramePrintDialogComponent&#45;&gt;Nmce_UI_Lazy_ServicesModule</title>
<path fill="none" stroke="black" d="M873.88,-122.24C873.88,-137.57 873.88,-157 873.88,-157 873.88,-157 796.16,-157 796.16,-157"/>
<polygon fill="black" stroke="black" points="796.16,-153.5 786.16,-157 796.16,-160.5 796.16,-153.5"/>
</g>
<!-- HtmlHRefPrintDialogComponent -->
<g id="node4" class="node">
<title>HtmlHRefPrintDialogComponent</title>
<polygon fill="#8dd3c7" stroke="black" points="786.76,-122 783.76,-126 762.76,-126 759.76,-122 581.24,-122 581.24,-86 786.76,-86 786.76,-122"/>
<text text-anchor="middle" x="684" y="-99.8" font-family="Times,serif" font-size="14.00">HtmlHRefPrintDialogComponent</text>
</g>
<!-- HtmlHRefPrintDialogComponent&#45;&gt;Nmce_UI_Lazy_ServicesModule -->
<g id="edge4" class="edge">
<title>HtmlHRefPrintDialogComponent&#45;&gt;Nmce_UI_Lazy_ServicesModule</title>
<path fill="none" stroke="black" d="M684,-122.11C684,-122.11 684,-140.99 684,-140.99"/>
<polygon fill="black" stroke="black" points="680.5,-140.99 684,-150.99 687.5,-140.99 680.5,-140.99"/>
</g>
<!-- HtmlImgPrintDialogComponent -->
<g id="node5" class="node">
<title>HtmlImgPrintDialogComponent</title>
<polygon fill="#8dd3c7" stroke="black" points="562.99,-122 559.99,-126 538.99,-126 535.99,-122 365.01,-122 365.01,-86 562.99,-86 562.99,-122"/>
<text text-anchor="middle" x="464" y="-99.8" font-family="Times,serif" font-size="14.00">HtmlImgPrintDialogComponent</text>
</g>
<!-- HtmlImgPrintDialogComponent&#45;&gt;Nmce_UI_Lazy_ServicesModule -->
<g id="edge5" class="edge">
<title>HtmlImgPrintDialogComponent&#45;&gt;Nmce_UI_Lazy_ServicesModule</title>
<path fill="none" stroke="black" d="M516.68,-122.24C516.68,-137.57 516.68,-157 516.68,-157 516.68,-157 571.85,-157 571.85,-157"/>
<polygon fill="black" stroke="black" points="571.85,-160.5 581.85,-157 571.85,-153.5 571.85,-160.5"/>
</g>
<!-- HtmlPrintDialogComponent -->
<g id="node6" class="node">
<title>HtmlPrintDialogComponent</title>
<polygon fill="#8dd3c7" stroke="black" points="346.94,-122 343.94,-126 322.94,-126 319.94,-122 171.06,-122 171.06,-86 346.94,-86 346.94,-122"/>
<text text-anchor="middle" x="259" y="-99.8" font-family="Times,serif" font-size="14.00">HtmlPrintDialogComponent</text>
</g>
<!-- HtmlPrintDialogComponent&#45;&gt;Nmce_UI_Lazy_ServicesModule -->
<g id="edge6" class="edge">
<title>HtmlPrintDialogComponent&#45;&gt;Nmce_UI_Lazy_ServicesModule</title>
<path fill="none" stroke="black" d="M310.12,-122.02C310.12,-139.37 310.12,-163 310.12,-163 310.12,-163 571.84,-163 571.84,-163"/>
<polygon fill="black" stroke="black" points="571.84,-166.5 581.84,-163 571.84,-159.5 571.84,-166.5"/>
</g>
<!-- ProgressComponent -->
<g id="node7" class="node">
<title>ProgressComponent</title>
<polygon fill="#8dd3c7" stroke="black" points="153.54,-122 150.54,-126 129.54,-126 126.54,-122 24.46,-122 24.46,-86 153.54,-86 153.54,-122"/>
<text text-anchor="middle" x="89" y="-99.8" font-family="Times,serif" font-size="14.00">ProgressComponent</text>
</g>
<!-- ProgressComponent&#45;&gt;Nmce_UI_Lazy_ServicesModule -->
<g id="edge7" class="edge">
<title>ProgressComponent&#45;&gt;Nmce_UI_Lazy_ServicesModule</title>
<path fill="none" stroke="black" d="M138.12,-122.11C138.12,-141.34 138.12,-169 138.12,-169 138.12,-169 571.65,-169 571.65,-169"/>
<polygon fill="black" stroke="black" points="571.65,-172.5 581.65,-169 571.65,-165.5 571.65,-172.5"/>
</g>
<!-- DataComponentPrintDialog  -->
<g id="node9" class="node">
<title>DataComponentPrintDialog </title>
<polygon fill="#fb8072" stroke="black" points="1370.09,-252 1193.91,-252 1193.91,-216 1370.09,-216 1370.09,-252"/>
<text text-anchor="middle" x="1282" y="-229.8" font-family="Times,serif" font-size="14.00">DataComponentPrintDialog </text>
</g>
<!-- Nmce_UI_Lazy_ServicesModule&#45;&gt;DataComponentPrintDialog  -->
<g id="edge8" class="edge">
<title>Nmce_UI_Lazy_ServicesModule&#45;&gt;DataComponentPrintDialog </title>
<path fill="none" stroke="black" stroke-dasharray="5,2" d="M786.28,-175C945.53,-175 1234.65,-175 1234.65,-175 1234.65,-175 1234.65,-205.98 1234.65,-205.98"/>
<polygon fill="black" stroke="black" points="1231.15,-205.98 1234.65,-215.98 1238.15,-205.98 1231.15,-205.98"/>
</g>
<!-- HtmlFramePrintDialogComponent  -->
<g id="node10" class="node">
<title>HtmlFramePrintDialogComponent </title>
<polygon fill="#fb8072" stroke="black" points="1175.2,-252 960.8,-252 960.8,-216 1175.2,-216 1175.2,-252"/>
<text text-anchor="middle" x="1068" y="-229.8" font-family="Times,serif" font-size="14.00">HtmlFramePrintDialogComponent </text>
</g>
<!-- Nmce_UI_Lazy_ServicesModule&#45;&gt;HtmlFramePrintDialogComponent  -->
<g id="edge9" class="edge">
<title>Nmce_UI_Lazy_ServicesModule&#45;&gt;HtmlFramePrintDialogComponent </title>
<path fill="none" stroke="black" stroke-dasharray="5,2" d="M786.48,-181C879.99,-181 1003.7,-181 1003.7,-181 1003.7,-181 1003.7,-205.76 1003.7,-205.76"/>
<polygon fill="black" stroke="black" points="1000.2,-205.76 1003.7,-215.76 1007.2,-205.76 1000.2,-205.76"/>
</g>
<!-- HtmlHRefFramePrintDialogComponent  -->
<g id="node11" class="node">
<title>HtmlHRefFramePrintDialogComponent </title>
<polygon fill="#fb8072" stroke="black" points="942.52,-252 697.48,-252 697.48,-216 942.52,-216 942.52,-252"/>
<text text-anchor="middle" x="820" y="-229.8" font-family="Times,serif" font-size="14.00">HtmlHRefFramePrintDialogComponent </text>
</g>
<!-- Nmce_UI_Lazy_ServicesModule&#45;&gt;HtmlHRefFramePrintDialogComponent  -->
<g id="edge10" class="edge">
<title>Nmce_UI_Lazy_ServicesModule&#45;&gt;HtmlHRefFramePrintDialogComponent </title>
<path fill="none" stroke="black" stroke-dasharray="5,2" d="M741.78,-187.11C741.78,-187.11 741.78,-205.99 741.78,-205.99"/>
<polygon fill="black" stroke="black" points="738.28,-205.99 741.78,-215.99 745.28,-205.99 738.28,-205.99"/>
</g>
<!-- HtmlHRefPrintDialogComponent  -->
<g id="node12" class="node">
<title>HtmlHRefPrintDialogComponent </title>
<polygon fill="#fb8072" stroke="black" points="679.76,-252 470.24,-252 470.24,-216 679.76,-216 679.76,-252"/>
<text text-anchor="middle" x="575" y="-229.8" font-family="Times,serif" font-size="14.00">HtmlHRefPrintDialogComponent </text>
</g>
<!-- Nmce_UI_Lazy_ServicesModule&#45;&gt;HtmlHRefPrintDialogComponent  -->
<g id="edge11" class="edge">
<title>Nmce_UI_Lazy_ServicesModule&#45;&gt;HtmlHRefPrintDialogComponent </title>
<path fill="none" stroke="black" stroke-dasharray="5,2" d="M630.78,-187.11C630.78,-187.11 630.78,-205.99 630.78,-205.99"/>
<polygon fill="black" stroke="black" points="627.28,-205.99 630.78,-215.99 634.28,-205.99 627.28,-205.99"/>
</g>
<!-- HtmlPrintDialogComponent  -->
<g id="node13" class="node">
<title>HtmlPrintDialogComponent </title>
<polygon fill="#fb8072" stroke="black" points="452.44,-252 273.56,-252 273.56,-216 452.44,-216 452.44,-252"/>
<text text-anchor="middle" x="363" y="-229.8" font-family="Times,serif" font-size="14.00">HtmlPrintDialogComponent </text>
</g>
<!-- Nmce_UI_Lazy_ServicesModule&#45;&gt;HtmlPrintDialogComponent  -->
<g id="edge12" class="edge">
<title>Nmce_UI_Lazy_ServicesModule&#45;&gt;HtmlPrintDialogComponent </title>
<path fill="none" stroke="black" stroke-dasharray="5,2" d="M581.89,-181C503.56,-181 408.74,-181 408.74,-181 408.74,-181 408.74,-205.76 408.74,-205.76"/>
<polygon fill="black" stroke="black" points="405.24,-205.76 408.74,-215.76 412.24,-205.76 405.24,-205.76"/>
</g>
<!-- ProgressComponent  -->
<g id="node14" class="node">
<title>ProgressComponent </title>
<polygon fill="#fb8072" stroke="black" points="255.54,-252 122.46,-252 122.46,-216 255.54,-216 255.54,-252"/>
<text text-anchor="middle" x="189" y="-229.8" font-family="Times,serif" font-size="14.00">ProgressComponent </text>
</g>
<!-- Nmce_UI_Lazy_ServicesModule&#45;&gt;ProgressComponent  -->
<g id="edge13" class="edge">
<title>Nmce_UI_Lazy_ServicesModule&#45;&gt;ProgressComponent </title>
<path fill="none" stroke="black" stroke-dasharray="5,2" d="M581.89,-175C443.48,-175 213.4,-175 213.4,-175 213.4,-175 213.4,-205.98 213.4,-205.98"/>
<polygon fill="black" stroke="black" points="209.9,-205.98 213.4,-215.98 216.9,-205.98 209.9,-205.98"/>
</g>
</g>
</svg>
