<?xml version="1.0" encoding="UTF-8" standalone="no"?>
<!DOCTYPE svg PUBLIC "-//W3C//DTD SVG 1.1//EN"
 "http://www.w3.org/Graphics/SVG/1.1/DTD/svg11.dtd">
<!-- Generated by graphviz version 2.47.0 (20210316.0004)
 -->
<!-- Title: dependencies Pages: 1 -->
<svg width="504pt" height="284pt"
 viewBox="0.00 0.00 504.00 284.00" xmlns="http://www.w3.org/2000/svg" xmlns:xlink="http://www.w3.org/1999/xlink">
<g id="graph0" class="graph" transform="scale(1 1) rotate(0) translate(4 280)">
<title>dependencies</title>
<polygon fill="white" stroke="transparent" points="-4,4 -4,-280 500,-280 500,4 -4,4"/>
<text text-anchor="start" x="227.01" y="-42.4" font-family="Times-12" font-weight="bold" font-size="14.00">Legend</text>
<polygon fill="#ffffb3" stroke="transparent" points="14,-10 14,-30 34,-30 34,-10 14,-10"/>
<text text-anchor="start" x="37.63" y="-15.4" font-family="Times-12" font-size="14.00"> &#160;Declarations</text>
<polygon fill="#8dd3c7" stroke="transparent" points="127,-10 127,-30 147,-30 147,-10 127,-10"/>
<text text-anchor="start" x="150.73" y="-15.4" font-family="Times-12" font-size="14.00"> &#160;Module</text>
<polygon fill="#80b1d3" stroke="transparent" points="213,-10 213,-30 233,-30 233,-10 213,-10"/>
<text text-anchor="start" x="236.78" y="-15.4" font-family="Times-12" font-size="14.00"> &#160;Bootstrap</text>
<polygon fill="#fdb462" stroke="transparent" points="310,-10 310,-30 330,-30 330,-10 310,-10"/>
<text text-anchor="start" x="333.67" y="-15.4" font-family="Times-12" font-size="14.00"> &#160;Providers</text>
<polygon fill="#fb8072" stroke="transparent" points="406,-10 406,-30 426,-30 426,-10 406,-10"/>
<text text-anchor="start" x="429.73" y="-15.4" font-family="Times-12" font-size="14.00"> &#160;Exports</text>
<g id="clust1" class="cluster">
<title>cluster_NmcePipesModule</title>
<polygon fill="none" stroke="black" stroke-dasharray="1,5" points="66,-70 66,-268 430,-268 430,-70 66,-70"/>
</g>
<g id="clust4" class="cluster">
<title>cluster_NmcePipesModule_exports</title>
<polygon fill="none" stroke="black" points="74,-208 74,-260 422,-260 422,-208 74,-208"/>
</g>
<g id="clust3" class="cluster">
<title>cluster_NmcePipesModule_imports</title>
<polygon fill="none" stroke="black" points="80,-78 80,-130 417,-130 417,-78 80,-78"/>
</g>
<!-- BankerRoundPipe -->
<g id="node1" class="node">
<title>BankerRoundPipe</title>
<polygon fill="#8dd3c7" stroke="black" points="409.15,-122 406.15,-126 385.15,-126 382.15,-122 290.85,-122 290.85,-86 409.15,-86 409.15,-122"/>
<text text-anchor="middle" x="350" y="-99.8" font-family="Times,serif" font-size="14.00">BankerRoundPipe</text>
</g>
<!-- NmcePipesModule -->
<g id="node4" class="node">
<title>NmcePipesModule</title>
<polygon fill="#8dd3c7" stroke="black" points="281.81,-187 278.81,-191 257.81,-191 254.81,-187 158.19,-187 158.19,-151 281.81,-151 281.81,-187"/>
<text text-anchor="middle" x="220" y="-164.8" font-family="Times,serif" font-size="14.00">NmcePipesModule</text>
</g>
<!-- BankerRoundPipe&#45;&gt;NmcePipesModule -->
<g id="edge1" class="edge">
<title>BankerRoundPipe&#45;&gt;NmcePipesModule</title>
<path fill="none" stroke="black" d="M290.72,-104C282.6,-104 276.98,-104 276.98,-104 276.98,-104 276.98,-140.89 276.98,-140.89"/>
<polygon fill="black" stroke="black" points="273.48,-140.89 276.98,-150.89 280.48,-140.89 273.48,-140.89"/>
</g>
<!-- LiteralDatePipe -->
<g id="node2" class="node">
<title>LiteralDatePipe</title>
<polygon fill="#8dd3c7" stroke="black" points="272.13,-122 269.13,-126 248.13,-126 245.13,-122 167.87,-122 167.87,-86 272.13,-86 272.13,-122"/>
<text text-anchor="middle" x="220" y="-99.8" font-family="Times,serif" font-size="14.00">LiteralDatePipe</text>
</g>
<!-- LiteralDatePipe&#45;&gt;NmcePipesModule -->
<g id="edge2" class="edge">
<title>LiteralDatePipe&#45;&gt;NmcePipesModule</title>
<path fill="none" stroke="black" d="M220,-122.11C220,-122.11 220,-140.99 220,-140.99"/>
<polygon fill="black" stroke="black" points="216.5,-140.99 220,-150.99 223.5,-140.99 216.5,-140.99"/>
</g>
<!-- PadPipe -->
<g id="node3" class="node">
<title>PadPipe</title>
<polygon fill="#8dd3c7" stroke="black" points="149.89,-122 146.89,-126 125.89,-126 122.89,-122 88.11,-122 88.11,-86 149.89,-86 149.89,-122"/>
<text text-anchor="middle" x="119" y="-99.8" font-family="Times,serif" font-size="14.00">PadPipe</text>
</g>
<!-- PadPipe&#45;&gt;NmcePipesModule -->
<g id="edge3" class="edge">
<title>PadPipe&#45;&gt;NmcePipesModule</title>
<path fill="none" stroke="black" d="M150.05,-104C157.33,-104 163.02,-104 163.02,-104 163.02,-104 163.02,-140.89 163.02,-140.89"/>
<polygon fill="black" stroke="black" points="159.52,-140.89 163.02,-150.89 166.52,-140.89 159.52,-140.89"/>
</g>
<!-- BankerRoundPipe  -->
<g id="node5" class="node">
<title>BankerRoundPipe </title>
<polygon fill="#fb8072" stroke="black" points="414.15,-252 291.85,-252 291.85,-216 414.15,-216 414.15,-252"/>
<text text-anchor="middle" x="353" y="-229.8" font-family="Times,serif" font-size="14.00">BankerRoundPipe </text>
</g>
<!-- NmcePipesModule&#45;&gt;BankerRoundPipe  -->
<g id="edge4" class="edge">
<title>NmcePipesModule&#45;&gt;BankerRoundPipe </title>
<path fill="none" stroke="black" stroke-dasharray="5,2" d="M277.86,-187.11C277.86,-206.34 277.86,-234 277.86,-234 277.86,-234 281.64,-234 281.64,-234"/>
<polygon fill="black" stroke="black" points="281.64,-237.5 291.64,-234 281.64,-230.5 281.64,-237.5"/>
</g>
<!-- LiteralDatePipe  -->
<g id="node6" class="node">
<title>LiteralDatePipe </title>
<polygon fill="#fb8072" stroke="black" points="274.13,-252 165.87,-252 165.87,-216 274.13,-216 274.13,-252"/>
<text text-anchor="middle" x="220" y="-229.8" font-family="Times,serif" font-size="14.00">LiteralDatePipe </text>
</g>
<!-- NmcePipesModule&#45;&gt;LiteralDatePipe  -->
<g id="edge5" class="edge">
<title>NmcePipesModule&#45;&gt;LiteralDatePipe </title>
<path fill="none" stroke="black" stroke-dasharray="5,2" d="M220,-187.11C220,-187.11 220,-205.99 220,-205.99"/>
<polygon fill="black" stroke="black" points="216.5,-205.99 220,-215.99 223.5,-205.99 216.5,-205.99"/>
</g>
<!-- PadPipe  -->
<g id="node7" class="node">
<title>PadPipe </title>
<polygon fill="#fb8072" stroke="black" points="147.89,-252 82.11,-252 82.11,-216 147.89,-216 147.89,-252"/>
<text text-anchor="middle" x="115" y="-229.8" font-family="Times,serif" font-size="14.00">PadPipe </text>
</g>
<!-- NmcePipesModule&#45;&gt;PadPipe  -->
<g id="edge6" class="edge">
<title>NmcePipesModule&#45;&gt;PadPipe </title>
<path fill="none" stroke="black" stroke-dasharray="5,2" d="M162.14,-187.11C162.14,-206.34 162.14,-234 162.14,-234 162.14,-234 157.74,-234 157.74,-234"/>
<polygon fill="black" stroke="black" points="157.74,-230.5 147.74,-234 157.74,-237.5 157.74,-230.5"/>
</g>
</g>
</svg>
