<?xml version="1.0" encoding="UTF-8" standalone="no"?>
<!DOCTYPE svg PUBLIC "-//W3C//DTD SVG 1.1//EN"
 "http://www.w3.org/Graphics/SVG/1.1/DTD/svg11.dtd">
<!-- Generated by graphviz version 2.47.0 (20210316.0004)
 -->
<!-- Title: dependencies Pages: 1 -->
<svg width="1102pt" height="284pt"
 viewBox="0.00 0.00 1102.00 284.00" xmlns="http://www.w3.org/2000/svg" xmlns:xlink="http://www.w3.org/1999/xlink">
<g id="graph0" class="graph" transform="scale(1 1) rotate(0) translate(4 280)">
<title>dependencies</title>
<polygon fill="white" stroke="transparent" points="-4,4 -4,-280 1098,-280 1098,4 -4,4"/>
<text text-anchor="start" x="526.01" y="-42.4" font-family="Times-12" font-weight="bold" font-size="14.00">Legend</text>
<polygon fill="#ffffb3" stroke="transparent" points="313,-10 313,-30 333,-30 333,-10 313,-10"/>
<text text-anchor="start" x="336.63" y="-15.4" font-family="Times-12" font-size="14.00"> &#160;Declarations</text>
<polygon fill="#8dd3c7" stroke="transparent" points="426,-10 426,-30 446,-30 446,-10 426,-10"/>
<text text-anchor="start" x="449.73" y="-15.4" font-family="Times-12" font-size="14.00"> &#160;Module</text>
<polygon fill="#80b1d3" stroke="transparent" points="512,-10 512,-30 532,-30 532,-10 512,-10"/>
<text text-anchor="start" x="535.78" y="-15.4" font-family="Times-12" font-size="14.00"> &#160;Bootstrap</text>
<polygon fill="#fdb462" stroke="transparent" points="609,-10 609,-30 629,-30 629,-10 609,-10"/>
<text text-anchor="start" x="632.67" y="-15.4" font-family="Times-12" font-size="14.00"> &#160;Providers</text>
<polygon fill="#fb8072" stroke="transparent" points="705,-10 705,-30 725,-30 725,-10 705,-10"/>
<text text-anchor="start" x="728.73" y="-15.4" font-family="Times-12" font-size="14.00"> &#160;Exports</text>
<g id="clust1" class="cluster">
<title>cluster_NmceComponentsModule</title>
<polygon fill="none" stroke="black" stroke-dasharray="1,5" points="8,-70 8,-268 1086,-268 1086,-70 8,-70"/>
</g>
<g id="clust4" class="cluster">
<title>cluster_NmceComponentsModule_exports</title>
<polygon fill="none" stroke="black" points="16,-208 16,-260 1078,-260 1078,-208 16,-208"/>
</g>
<g id="clust3" class="cluster">
<title>cluster_NmceComponentsModule_imports</title>
<polygon fill="none" stroke="black" points="27,-78 27,-130 1064,-130 1064,-78 27,-78"/>
</g>
<!-- AlertComponent -->
<g id="node1" class="node">
<title>AlertComponent</title>
<polygon fill="#8dd3c7" stroke="black" points="1056.1,-122 1053.1,-126 1032.1,-126 1029.1,-122 945.9,-122 945.9,-86 1056.1,-86 1056.1,-122"/>
<text text-anchor="middle" x="1001" y="-99.8" font-family="Times,serif" font-size="14.00">AlertComponent</text>
</g>
<!-- NmceComponentsModule -->
<g id="node8" class="node">
<title>NmceComponentsModule</title>
<polygon fill="#8dd3c7" stroke="black" points="597.75,-187 594.75,-191 573.75,-191 570.75,-187 434.25,-187 434.25,-151 597.75,-151 597.75,-187"/>
<text text-anchor="middle" x="516" y="-164.8" font-family="Times,serif" font-size="14.00">NmceComponentsModule</text>
</g>
<!-- AlertComponent&#45;&gt;NmceComponentsModule -->
<g id="edge1" class="edge">
<title>AlertComponent&#45;&gt;NmceComponentsModule</title>
<path fill="none" stroke="black" d="M951.08,-122.27C951.08,-140.56 951.08,-166 951.08,-166 951.08,-166 607.83,-166 607.83,-166"/>
<polygon fill="black" stroke="black" points="607.83,-162.5 597.83,-166 607.83,-169.5 607.83,-162.5"/>
</g>
<!-- MonthYearExpiryComponent -->
<g id="node2" class="node">
<title>MonthYearExpiryComponent</title>
<polygon fill="#8dd3c7" stroke="black" points="927.97,-122 924.97,-126 903.97,-126 900.97,-122 744.03,-122 744.03,-86 927.97,-86 927.97,-122"/>
<text text-anchor="middle" x="836" y="-99.8" font-family="Times,serif" font-size="14.00">MonthYearExpiryComponent</text>
</g>
<!-- MonthYearExpiryComponent&#45;&gt;NmceComponentsModule -->
<g id="edge2" class="edge">
<title>MonthYearExpiryComponent&#45;&gt;NmceComponentsModule</title>
<path fill="none" stroke="black" d="M868.74,-122.01C868.74,-138.05 868.74,-159 868.74,-159 868.74,-159 607.81,-159 607.81,-159"/>
<polygon fill="black" stroke="black" points="607.81,-155.5 597.81,-159 607.81,-162.5 607.81,-155.5"/>
</g>
<!-- NotFoundComponent -->
<g id="node3" class="node">
<title>NotFoundComponent</title>
<polygon fill="#8dd3c7" stroke="black" points="726.11,-122 723.11,-126 702.11,-126 699.11,-122 587.89,-122 587.89,-86 726.11,-86 726.11,-122"/>
<text text-anchor="middle" x="657" y="-99.8" font-family="Times,serif" font-size="14.00">NotFoundComponent</text>
</g>
<!-- NotFoundComponent&#45;&gt;NmceComponentsModule -->
<g id="edge3" class="edge">
<title>NotFoundComponent&#45;&gt;NmceComponentsModule</title>
<path fill="none" stroke="black" d="M592.91,-122.11C592.91,-122.11 592.91,-140.99 592.91,-140.99"/>
<polygon fill="black" stroke="black" points="589.41,-140.99 592.91,-150.99 596.41,-140.99 589.41,-140.99"/>
</g>
<!-- PrintComponent -->
<g id="node4" class="node">
<title>PrintComponent</title>
<polygon fill="#8dd3c7" stroke="black" points="570.06,-122 567.06,-126 546.06,-126 543.06,-122 461.94,-122 461.94,-86 570.06,-86 570.06,-122"/>
<text text-anchor="middle" x="516" y="-99.8" font-family="Times,serif" font-size="14.00">PrintComponent</text>
</g>
<!-- PrintComponent&#45;&gt;NmceComponentsModule -->
<g id="edge4" class="edge">
<title>PrintComponent&#45;&gt;NmceComponentsModule</title>
<path fill="none" stroke="black" d="M516,-122.11C516,-122.11 516,-140.99 516,-140.99"/>
<polygon fill="black" stroke="black" points="512.5,-140.99 516,-150.99 519.5,-140.99 512.5,-140.99"/>
</g>
<!-- WIPComponent -->
<g id="node5" class="node">
<title>WIPComponent</title>
<polygon fill="#8dd3c7" stroke="black" points="443.49,-122 440.49,-126 419.49,-126 416.49,-122 336.51,-122 336.51,-86 443.49,-86 443.49,-122"/>
<text text-anchor="middle" x="390" y="-99.8" font-family="Times,serif" font-size="14.00">WIPComponent</text>
</g>
<!-- WIPComponent&#45;&gt;NmceComponentsModule -->
<g id="edge5" class="edge">
<title>WIPComponent&#45;&gt;NmceComponentsModule</title>
<path fill="none" stroke="black" d="M438.81,-122.11C438.81,-122.11 438.81,-140.99 438.81,-140.99"/>
<polygon fill="black" stroke="black" points="435.31,-140.99 438.81,-150.99 442.31,-140.99 435.31,-140.99"/>
</g>
<!-- WaitComponent -->
<g id="node6" class="node">
<title>WaitComponent</title>
<polygon fill="#8dd3c7" stroke="black" points="318.04,-122 315.04,-126 294.04,-126 291.04,-122 209.96,-122 209.96,-86 318.04,-86 318.04,-122"/>
<text text-anchor="middle" x="264" y="-99.8" font-family="Times,serif" font-size="14.00">WaitComponent</text>
</g>
<!-- WaitComponent&#45;&gt;NmceComponentsModule -->
<g id="edge6" class="edge">
<title>WaitComponent&#45;&gt;NmceComponentsModule</title>
<path fill="none" stroke="black" d="M279.26,-122.01C279.26,-138.05 279.26,-159 279.26,-159 279.26,-159 424.2,-159 424.2,-159"/>
<polygon fill="black" stroke="black" points="424.2,-162.5 434.2,-159 424.19,-155.5 424.2,-162.5"/>
</g>
<!-- WaitProgressComponent -->
<g id="node7" class="node">
<title>WaitProgressComponent</title>
<polygon fill="#8dd3c7" stroke="black" points="191.25,-122 188.25,-126 167.25,-126 164.25,-122 34.75,-122 34.75,-86 191.25,-86 191.25,-122"/>
<text text-anchor="middle" x="113" y="-99.8" font-family="Times,serif" font-size="14.00">WaitProgressComponent</text>
</g>
<!-- WaitProgressComponent&#45;&gt;NmceComponentsModule -->
<g id="edge7" class="edge">
<title>WaitProgressComponent&#45;&gt;NmceComponentsModule</title>
<path fill="none" stroke="black" d="M187.75,-122.27C187.75,-140.56 187.75,-166 187.75,-166 187.75,-166 424.02,-166 424.02,-166"/>
<polygon fill="black" stroke="black" points="424.02,-169.5 434.02,-166 424.02,-162.5 424.02,-169.5"/>
</g>
<!-- AlertComponent  -->
<g id="node9" class="node">
<title>AlertComponent </title>
<polygon fill="#fb8072" stroke="black" points="1069.6,-252 956.4,-252 956.4,-216 1069.6,-216 1069.6,-252"/>
<text text-anchor="middle" x="1013" y="-229.8" font-family="Times,serif" font-size="14.00">AlertComponent </text>
</g>
<!-- NmceComponentsModule&#45;&gt;AlertComponent  -->
<g id="edge8" class="edge">
<title>NmceComponentsModule&#45;&gt;AlertComponent </title>
<path fill="none" stroke="black" stroke-dasharray="5,2" d="M597.76,-173C737.21,-173 1006.12,-173 1006.12,-173 1006.12,-173 1006.12,-205.7 1006.12,-205.7"/>
<polygon fill="black" stroke="black" points="1002.63,-205.7 1006.12,-215.7 1009.63,-205.7 1002.63,-205.7"/>
</g>
<!-- MonthYearExpiryComponent  -->
<g id="node10" class="node">
<title>MonthYearExpiryComponent </title>
<polygon fill="#fb8072" stroke="black" points="937.97,-252 750.03,-252 750.03,-216 937.97,-216 937.97,-252"/>
<text text-anchor="middle" x="844" y="-229.8" font-family="Times,serif" font-size="14.00">MonthYearExpiryComponent </text>
</g>
<!-- NmceComponentsModule&#45;&gt;MonthYearExpiryComponent  -->
<g id="edge9" class="edge">
<title>NmceComponentsModule&#45;&gt;MonthYearExpiryComponent </title>
<path fill="none" stroke="black" stroke-dasharray="5,2" d="M597.76,-180C684.6,-180 809.51,-180 809.51,-180 809.51,-180 809.51,-205.72 809.51,-205.72"/>
<polygon fill="black" stroke="black" points="806.01,-205.72 809.51,-215.72 813.01,-205.72 806.01,-205.72"/>
</g>
<!-- NotFoundComponent  -->
<g id="node11" class="node">
<title>NotFoundComponent </title>
<polygon fill="#fb8072" stroke="black" points="731.61,-252 590.39,-252 590.39,-216 731.61,-216 731.61,-252"/>
<text text-anchor="middle" x="661" y="-229.8" font-family="Times,serif" font-size="14.00">NotFoundComponent </text>
</g>
<!-- NmceComponentsModule&#45;&gt;NotFoundComponent  -->
<g id="edge10" class="edge">
<title>NmceComponentsModule&#45;&gt;NotFoundComponent </title>
<path fill="none" stroke="black" stroke-dasharray="5,2" d="M594.04,-187.11C594.04,-187.11 594.04,-205.99 594.04,-205.99"/>
<polygon fill="black" stroke="black" points="590.54,-205.99 594.04,-215.99 597.54,-205.99 590.54,-205.99"/>
</g>
<!-- PrintComponent  -->
<g id="node12" class="node">
<title>PrintComponent </title>
<polygon fill="#fb8072" stroke="black" points="572.06,-252 459.94,-252 459.94,-216 572.06,-216 572.06,-252"/>
<text text-anchor="middle" x="516" y="-229.8" font-family="Times,serif" font-size="14.00">PrintComponent </text>
</g>
<!-- NmceComponentsModule&#45;&gt;PrintComponent  -->
<g id="edge11" class="edge">
<title>NmceComponentsModule&#45;&gt;PrintComponent </title>
<path fill="none" stroke="black" stroke-dasharray="5,2" d="M516,-187.11C516,-187.11 516,-205.99 516,-205.99"/>
<polygon fill="black" stroke="black" points="512.5,-205.99 516,-215.99 519.5,-205.99 512.5,-205.99"/>
</g>
<!-- WIPComponent  -->
<g id="node13" class="node">
<title>WIPComponent </title>
<polygon fill="#fb8072" stroke="black" points="442.49,-252 331.51,-252 331.51,-216 442.49,-216 442.49,-252"/>
<text text-anchor="middle" x="387" y="-229.8" font-family="Times,serif" font-size="14.00">WIPComponent </text>
</g>
<!-- NmceComponentsModule&#45;&gt;WIPComponent  -->
<g id="edge12" class="edge">
<title>NmceComponentsModule&#45;&gt;WIPComponent </title>
<path fill="none" stroke="black" stroke-dasharray="5,2" d="M438.18,-187.11C438.18,-187.11 438.18,-205.99 438.18,-205.99"/>
<polygon fill="black" stroke="black" points="434.68,-205.99 438.18,-215.99 441.68,-205.99 434.68,-205.99"/>
</g>
<!-- WaitComponent  -->
<g id="node14" class="node">
<title>WaitComponent </title>
<polygon fill="#fb8072" stroke="black" points="314.04,-252 201.96,-252 201.96,-216 314.04,-216 314.04,-252"/>
<text text-anchor="middle" x="258" y="-229.8" font-family="Times,serif" font-size="14.00">WaitComponent </text>
</g>
<!-- NmceComponentsModule&#45;&gt;WaitComponent  -->
<g id="edge13" class="edge">
<title>NmceComponentsModule&#45;&gt;WaitComponent </title>
<path fill="none" stroke="black" stroke-dasharray="5,2" d="M434.17,-180C354.23,-180 244.49,-180 244.49,-180 244.49,-180 244.49,-205.72 244.49,-205.72"/>
<polygon fill="black" stroke="black" points="240.99,-205.72 244.49,-215.72 247.99,-205.72 240.99,-205.72"/>
</g>
<!-- WaitProgressComponent  -->
<g id="node15" class="node">
<title>WaitProgressComponent </title>
<polygon fill="#fb8072" stroke="black" points="184.25,-252 23.75,-252 23.75,-216 184.25,-216 184.25,-252"/>
<text text-anchor="middle" x="104" y="-229.8" font-family="Times,serif" font-size="14.00">WaitProgressComponent </text>
</g>
<!-- NmceComponentsModule&#45;&gt;WaitProgressComponent  -->
<g id="edge14" class="edge">
<title>NmceComponentsModule&#45;&gt;WaitProgressComponent </title>
<path fill="none" stroke="black" stroke-dasharray="5,2" d="M434.2,-173C315.46,-173 109.38,-173 109.38,-173 109.38,-173 109.38,-205.7 109.38,-205.7"/>
<polygon fill="black" stroke="black" points="105.88,-205.7 109.38,-215.7 112.88,-205.7 105.88,-205.7"/>
</g>
</g>
</svg>
