<?xml version="1.0" encoding="UTF-8" standalone="no"?>
<!DOCTYPE svg PUBLIC "-//W3C//DTD SVG 1.1//EN"
 "http://www.w3.org/Graphics/SVG/1.1/DTD/svg11.dtd">
<!-- Generated by graphviz version 2.47.0 (20210316.0004)
 -->
<!-- Title: dependencies Pages: 1 -->
<svg width="3668pt" height="284pt"
 viewBox="0.00 0.00 3668.00 284.00" xmlns="http://www.w3.org/2000/svg" xmlns:xlink="http://www.w3.org/1999/xlink">
<g id="graph0" class="graph" transform="scale(1 1) rotate(0) translate(4 280)">
<title>dependencies</title>
<polygon fill="white" stroke="transparent" points="-4,4 -4,-280 3664,-280 3664,4 -4,4"/>
<text text-anchor="start" x="1809.01" y="-42.4" font-family="Times-12" font-weight="bold" font-size="14.00">Legend</text>
<polygon fill="#ffffb3" stroke="transparent" points="1596,-10 1596,-30 1616,-30 1616,-10 1596,-10"/>
<text text-anchor="start" x="1619.63" y="-15.4" font-family="Times-12" font-size="14.00"> &#160;Declarations</text>
<polygon fill="#8dd3c7" stroke="transparent" points="1709,-10 1709,-30 1729,-30 1729,-10 1709,-10"/>
<text text-anchor="start" x="1732.73" y="-15.4" font-family="Times-12" font-size="14.00"> &#160;Module</text>
<polygon fill="#80b1d3" stroke="transparent" points="1795,-10 1795,-30 1815,-30 1815,-10 1795,-10"/>
<text text-anchor="start" x="1818.78" y="-15.4" font-family="Times-12" font-size="14.00"> &#160;Bootstrap</text>
<polygon fill="#fdb462" stroke="transparent" points="1892,-10 1892,-30 1912,-30 1912,-10 1892,-10"/>
<text text-anchor="start" x="1915.67" y="-15.4" font-family="Times-12" font-size="14.00"> &#160;Providers</text>
<polygon fill="#fb8072" stroke="transparent" points="1988,-10 1988,-30 2008,-30 2008,-10 1988,-10"/>
<text text-anchor="start" x="2011.73" y="-15.4" font-family="Times-12" font-size="14.00"> &#160;Exports</text>
<g id="clust1" class="cluster">
<title>cluster_Nmce_UI_ServicesModule</title>
<polygon fill="none" stroke="black" stroke-dasharray="1,5" points="8,-70 8,-268 3652,-268 3652,-70 8,-70"/>
</g>
<g id="clust3" class="cluster">
<title>cluster_Nmce_UI_ServicesModule_imports</title>
<polygon fill="none" stroke="black" points="16,-78 16,-130 3644,-130 3644,-78 16,-78"/>
</g>
<g id="clust4" class="cluster">
<title>cluster_Nmce_UI_ServicesModule_exports</title>
<polygon fill="none" stroke="black" points="452,-208 452,-260 3232,-260 3232,-208 452,-208"/>
</g>
<!-- ConfirmComponent -->
<g id="node1" class="node">
<title>ConfirmComponent</title>
<polygon fill="#8dd3c7" stroke="black" points="3636.27,-122 3633.27,-126 3612.27,-126 3609.27,-122 3507.73,-122 3507.73,-86 3636.27,-86 3636.27,-122"/>
<text text-anchor="middle" x="3572" y="-99.8" font-family="Times,serif" font-size="14.00">ConfirmComponent</text>
</g>
<!-- Nmce_UI_ServicesModule -->
<g id="node21" class="node">
<title>Nmce_UI_ServicesModule</title>
<polygon fill="#8dd3c7" stroke="black" points="1813.67,-187 1810.67,-191 1789.67,-191 1786.67,-187 1644.33,-187 1644.33,-151 1813.67,-151 1813.67,-187"/>
<text text-anchor="middle" x="1729" y="-164.8" font-family="Times,serif" font-size="14.00">Nmce_UI_ServicesModule</text>
</g>
<!-- ConfirmComponent&#45;&gt;Nmce_UI_ServicesModule -->
<g id="edge1" class="edge">
<title>ConfirmComponent&#45;&gt;Nmce_UI_ServicesModule</title>
<path fill="none" stroke="black" d="M3572,-122.22C3572,-142.37 3572,-172 3572,-172 3572,-172 1823.59,-172 1823.59,-172"/>
<polygon fill="black" stroke="black" points="1823.59,-168.5 1813.59,-172 1823.59,-175.5 1823.59,-168.5"/>
</g>
<!-- DataComponentDialog -->
<g id="node2" class="node">
<title>DataComponentDialog</title>
<polygon fill="#8dd3c7" stroke="black" points="3489.86,-122 3486.86,-126 3465.86,-126 3462.86,-122 3344.14,-122 3344.14,-86 3489.86,-86 3489.86,-122"/>
<text text-anchor="middle" x="3417" y="-99.8" font-family="Times,serif" font-size="14.00">DataComponentDialog</text>
</g>
<!-- DataComponentDialog&#45;&gt;Nmce_UI_ServicesModule -->
<g id="edge2" class="edge">
<title>DataComponentDialog&#45;&gt;Nmce_UI_ServicesModule</title>
<path fill="none" stroke="black" d="M3417,-122.11C3417,-141.34 3417,-169 3417,-169 3417,-169 1823.86,-169 1823.86,-169"/>
<polygon fill="black" stroke="black" points="1823.87,-165.5 1813.86,-169 1823.86,-172.5 1823.87,-165.5"/>
</g>
<!-- DateHourRangePickerComponent -->
<g id="node3" class="node">
<title>DateHourRangePickerComponent</title>
<polygon fill="#8dd3c7" stroke="black" points="3326.05,-122 3323.05,-126 3302.05,-126 3299.05,-122 3117.95,-122 3117.95,-86 3326.05,-86 3326.05,-122"/>
<text text-anchor="middle" x="3222" y="-99.8" font-family="Times,serif" font-size="14.00">DateHourRangePickerComponent</text>
</g>
<!-- DateHourRangePickerComponent&#45;&gt;Nmce_UI_ServicesModule -->
<g id="edge3" class="edge">
<title>DateHourRangePickerComponent&#45;&gt;Nmce_UI_ServicesModule</title>
<path fill="none" stroke="black" d="M3171.05,-122.22C3171.05,-140.83 3171.05,-167 3171.05,-167 3171.05,-167 1823.82,-167 1823.82,-167"/>
<polygon fill="black" stroke="black" points="1823.82,-163.5 1813.82,-167 1823.82,-170.5 1823.82,-163.5"/>
</g>
<!-- DateRangePickerComponent -->
<g id="node4" class="node">
<title>DateRangePickerComponent</title>
<polygon fill="#8dd3c7" stroke="black" points="3099.79,-122 3096.79,-126 3075.79,-126 3072.79,-122 2920.21,-122 2920.21,-86 3099.79,-86 3099.79,-122"/>
<text text-anchor="middle" x="3010" y="-99.8" font-family="Times,serif" font-size="14.00">DateRangePickerComponent</text>
</g>
<!-- DateRangePickerComponent&#45;&gt;Nmce_UI_ServicesModule -->
<g id="edge4" class="edge">
<title>DateRangePickerComponent&#45;&gt;Nmce_UI_ServicesModule</title>
<path fill="none" stroke="black" d="M2974.11,-122.3C2974.11,-140.27 2974.11,-165 2974.11,-165 2974.11,-165 1823.6,-165 1823.6,-165"/>
<polygon fill="black" stroke="black" points="1823.6,-161.5 1813.6,-165 1823.6,-168.5 1823.6,-161.5"/>
</g>
<!-- HtmlDialogComponent -->
<g id="node5" class="node">
<title>HtmlDialogComponent</title>
<polygon fill="#8dd3c7" stroke="black" points="2902.21,-122 2899.21,-126 2878.21,-126 2875.21,-122 2753.79,-122 2753.79,-86 2902.21,-86 2902.21,-122"/>
<text text-anchor="middle" x="2828" y="-99.8" font-family="Times,serif" font-size="14.00">HtmlDialogComponent</text>
</g>
<!-- HtmlDialogComponent&#45;&gt;Nmce_UI_ServicesModule -->
<g id="edge5" class="edge">
<title>HtmlDialogComponent&#45;&gt;Nmce_UI_ServicesModule</title>
<path fill="none" stroke="black" d="M2828,-122.02C2828,-139.37 2828,-163 2828,-163 2828,-163 1823.87,-163 1823.87,-163"/>
<polygon fill="black" stroke="black" points="1823.87,-159.5 1813.87,-163 1823.87,-166.5 1823.87,-159.5"/>
</g>
<!-- HtmlFrameDialogComponent -->
<g id="node6" class="node">
<title>HtmlFrameDialogComponent</title>
<polygon fill="#8dd3c7" stroke="black" points="2735.98,-122 2732.98,-126 2711.98,-126 2708.98,-122 2552.02,-122 2552.02,-86 2735.98,-86 2735.98,-122"/>
<text text-anchor="middle" x="2644" y="-99.8" font-family="Times,serif" font-size="14.00">HtmlFrameDialogComponent</text>
</g>
<!-- HtmlFrameDialogComponent&#45;&gt;Nmce_UI_ServicesModule -->
<g id="edge6" class="edge">
<title>HtmlFrameDialogComponent&#45;&gt;Nmce_UI_ServicesModule</title>
<path fill="none" stroke="black" d="M2614.7,-122.03C2614.7,-138.4 2614.7,-160 2614.7,-160 2614.7,-160 1823.92,-160 1823.92,-160"/>
<polygon fill="black" stroke="black" points="1823.92,-156.5 1813.92,-160 1823.92,-163.5 1823.92,-156.5"/>
</g>
<!-- HtmlHRefDialogComponent -->
<g id="node7" class="node">
<title>HtmlHRefDialogComponent</title>
<polygon fill="#8dd3c7" stroke="black" points="2534.03,-122 2531.03,-126 2510.03,-126 2507.03,-122 2355.97,-122 2355.97,-86 2534.03,-86 2534.03,-122"/>
<text text-anchor="middle" x="2445" y="-99.8" font-family="Times,serif" font-size="14.00">HtmlHRefDialogComponent</text>
</g>
<!-- HtmlHRefDialogComponent&#45;&gt;Nmce_UI_ServicesModule -->
<g id="edge7" class="edge">
<title>HtmlHRefDialogComponent&#45;&gt;Nmce_UI_ServicesModule</title>
<path fill="none" stroke="black" d="M2416.24,-122.28C2416.24,-137.95 2416.24,-158 2416.24,-158 2416.24,-158 1823.61,-158 1823.61,-158"/>
<polygon fill="black" stroke="black" points="1823.61,-154.5 1813.61,-158 1823.61,-161.5 1823.61,-154.5"/>
</g>
<!-- HtmlHRefFrameDialogComponent -->
<g id="node8" class="node">
<title>HtmlHRefFrameDialogComponent</title>
<polygon fill="#8dd3c7" stroke="black" points="2338.29,-122 2335.29,-126 2314.29,-126 2311.29,-122 2123.71,-122 2123.71,-86 2338.29,-86 2338.29,-122"/>
<text text-anchor="middle" x="2231" y="-99.8" font-family="Times,serif" font-size="14.00">HtmlHRefFrameDialogComponent</text>
</g>
<!-- HtmlHRefFrameDialogComponent&#45;&gt;Nmce_UI_ServicesModule -->
<g id="edge8" class="edge">
<title>HtmlHRefFrameDialogComponent&#45;&gt;Nmce_UI_ServicesModule</title>
<path fill="none" stroke="black" d="M2197.38,-122.19C2197.38,-137.18 2197.38,-156 2197.38,-156 2197.38,-156 1823.82,-156 1823.82,-156"/>
<polygon fill="black" stroke="black" points="1823.82,-152.5 1813.82,-156 1823.82,-159.5 1823.82,-152.5"/>
</g>
<!-- HtmlImgDialogComponent -->
<g id="node9" class="node">
<title>HtmlImgDialogComponent</title>
<polygon fill="#8dd3c7" stroke="black" points="2105.26,-122 2102.26,-126 2081.26,-126 2078.26,-122 1934.74,-122 1934.74,-86 2105.26,-86 2105.26,-122"/>
<text text-anchor="middle" x="2020" y="-99.8" font-family="Times,serif" font-size="14.00">HtmlImgDialogComponent</text>
</g>
<!-- HtmlImgDialogComponent&#45;&gt;Nmce_UI_ServicesModule -->
<g id="edge9" class="edge">
<title>HtmlImgDialogComponent&#45;&gt;Nmce_UI_ServicesModule</title>
<path fill="none" stroke="black" d="M1984.67,-122.05C1984.67,-136.37 1984.67,-154 1984.67,-154 1984.67,-154 1823.78,-154 1823.78,-154"/>
<polygon fill="black" stroke="black" points="1823.78,-150.5 1813.78,-154 1823.78,-157.5 1823.78,-150.5"/>
</g>
<!-- ItemListDialogComponent -->
<g id="node10" class="node">
<title>ItemListDialogComponent</title>
<polygon fill="#8dd3c7" stroke="black" points="1916.37,-122 1913.37,-126 1892.37,-126 1889.37,-122 1749.63,-122 1749.63,-86 1916.37,-86 1916.37,-122"/>
<text text-anchor="middle" x="1833" y="-99.8" font-family="Times,serif" font-size="14.00">ItemListDialogComponent</text>
</g>
<!-- ItemListDialogComponent&#45;&gt;Nmce_UI_ServicesModule -->
<g id="edge10" class="edge">
<title>ItemListDialogComponent&#45;&gt;Nmce_UI_ServicesModule</title>
<path fill="none" stroke="black" d="M1781.57,-122.11C1781.57,-122.11 1781.57,-140.99 1781.57,-140.99"/>
<polygon fill="black" stroke="black" points="1778.07,-140.99 1781.57,-150.99 1785.07,-140.99 1778.07,-140.99"/>
</g>
<!-- LocalTextEditorDialogComponent -->
<g id="node11" class="node">
<title>LocalTextEditorDialogComponent</title>
<polygon fill="#8dd3c7" stroke="black" points="1731.96,-122 1728.96,-126 1707.96,-126 1704.96,-122 1520.04,-122 1520.04,-86 1731.96,-86 1731.96,-122"/>
<text text-anchor="middle" x="1626" y="-99.8" font-family="Times,serif" font-size="14.00">LocalTextEditorDialogComponent</text>
</g>
<!-- LocalTextEditorDialogComponent&#45;&gt;Nmce_UI_ServicesModule -->
<g id="edge11" class="edge">
<title>LocalTextEditorDialogComponent&#45;&gt;Nmce_UI_ServicesModule</title>
<path fill="none" stroke="black" d="M1688.2,-122.11C1688.2,-122.11 1688.2,-140.99 1688.2,-140.99"/>
<polygon fill="black" stroke="black" points="1684.7,-140.99 1688.2,-150.99 1691.7,-140.99 1684.7,-140.99"/>
</g>
<!-- LogDialogComponent -->
<g id="node12" class="node">
<title>LogDialogComponent</title>
<polygon fill="#8dd3c7" stroke="black" points="1501.99,-122 1498.99,-126 1477.99,-126 1474.99,-122 1360.01,-122 1360.01,-86 1501.99,-86 1501.99,-122"/>
<text text-anchor="middle" x="1431" y="-99.8" font-family="Times,serif" font-size="14.00">LogDialogComponent</text>
</g>
<!-- LogDialogComponent&#45;&gt;Nmce_UI_ServicesModule -->
<g id="edge12" class="edge">
<title>LogDialogComponent&#45;&gt;Nmce_UI_ServicesModule</title>
<path fill="none" stroke="black" d="M1487.08,-122.05C1487.08,-136.37 1487.08,-154 1487.08,-154 1487.08,-154 1634.39,-154 1634.39,-154"/>
<polygon fill="black" stroke="black" points="1634.39,-157.5 1644.39,-154 1634.39,-150.5 1634.39,-157.5"/>
</g>
<!-- LogSnackComponent -->
<g id="node13" class="node">
<title>LogSnackComponent</title>
<polygon fill="#8dd3c7" stroke="black" points="1342.1,-122 1339.1,-126 1318.1,-126 1315.1,-122 1203.9,-122 1203.9,-86 1342.1,-86 1342.1,-122"/>
<text text-anchor="middle" x="1273" y="-99.8" font-family="Times,serif" font-size="14.00">LogSnackComponent</text>
</g>
<!-- LogSnackComponent&#45;&gt;Nmce_UI_ServicesModule -->
<g id="edge13" class="edge">
<title>LogSnackComponent&#45;&gt;Nmce_UI_ServicesModule</title>
<path fill="none" stroke="black" d="M1331.04,-122.19C1331.04,-137.18 1331.04,-156 1331.04,-156 1331.04,-156 1634.12,-156 1634.12,-156"/>
<polygon fill="black" stroke="black" points="1634.12,-159.5 1644.12,-156 1634.12,-152.5 1634.12,-159.5"/>
</g>
<!-- NotificationsComponent -->
<g id="node14" class="node">
<title>NotificationsComponent</title>
<polygon fill="#8dd3c7" stroke="black" points="1186.43,-122 1183.43,-126 1162.43,-126 1159.43,-122 1031.57,-122 1031.57,-86 1186.43,-86 1186.43,-122"/>
<text text-anchor="middle" x="1109" y="-99.8" font-family="Times,serif" font-size="14.00">NotificationsComponent</text>
</g>
<!-- NotificationsComponent&#45;&gt;Nmce_UI_ServicesModule -->
<g id="edge14" class="edge">
<title>NotificationsComponent&#45;&gt;Nmce_UI_ServicesModule</title>
<path fill="none" stroke="black" d="M1179.32,-122.28C1179.32,-137.95 1179.32,-158 1179.32,-158 1179.32,-158 1634.32,-158 1634.32,-158"/>
<polygon fill="black" stroke="black" points="1634.32,-161.5 1644.32,-158 1634.32,-154.5 1634.32,-161.5"/>
</g>
<!-- OptionsComponent -->
<g id="node15" class="node">
<title>OptionsComponent</title>
<polygon fill="#8dd3c7" stroke="black" points="1013.67,-122 1010.67,-126 989.67,-126 986.67,-122 888.33,-122 888.33,-86 1013.67,-86 1013.67,-122"/>
<text text-anchor="middle" x="951" y="-99.8" font-family="Times,serif" font-size="14.00">OptionsComponent</text>
</g>
<!-- OptionsComponent&#45;&gt;Nmce_UI_ServicesModule -->
<g id="edge15" class="edge">
<title>OptionsComponent&#45;&gt;Nmce_UI_ServicesModule</title>
<path fill="none" stroke="black" d="M997.55,-122.03C997.55,-138.4 997.55,-160 997.55,-160 997.55,-160 1634.38,-160 1634.38,-160"/>
<polygon fill="black" stroke="black" points="1634.38,-163.5 1644.38,-160 1634.38,-156.5 1634.38,-163.5"/>
</g>
<!-- PasswordsInputComponent -->
<g id="node16" class="node">
<title>PasswordsInputComponent</title>
<polygon fill="#8dd3c7" stroke="black" points="869.98,-122 866.98,-126 845.98,-126 842.98,-122 700.02,-122 700.02,-86 869.98,-86 869.98,-122"/>
<text text-anchor="middle" x="785" y="-99.8" font-family="Times,serif" font-size="14.00">PasswordsInputComponent</text>
</g>
<!-- PasswordsInputComponent&#45;&gt;Nmce_UI_ServicesModule -->
<g id="edge16" class="edge">
<title>PasswordsInputComponent&#45;&gt;Nmce_UI_ServicesModule</title>
<path fill="none" stroke="black" d="M842.35,-122.02C842.35,-139.37 842.35,-163 842.35,-163 842.35,-163 1634.39,-163 1634.39,-163"/>
<polygon fill="black" stroke="black" points="1634.39,-166.5 1644.39,-163 1634.39,-159.5 1634.39,-166.5"/>
</g>
<!-- TextDialogComponent -->
<g id="node17" class="node">
<title>TextDialogComponent</title>
<polygon fill="#8dd3c7" stroke="black" points="681.59,-122 678.59,-126 657.59,-126 654.59,-122 536.41,-122 536.41,-86 681.59,-86 681.59,-122"/>
<text text-anchor="middle" x="609" y="-99.8" font-family="Times,serif" font-size="14.00">TextDialogComponent</text>
</g>
<!-- TextDialogComponent&#45;&gt;Nmce_UI_ServicesModule -->
<g id="edge17" class="edge">
<title>TextDialogComponent&#45;&gt;Nmce_UI_ServicesModule</title>
<path fill="none" stroke="black" d="M649.55,-122.3C649.55,-140.27 649.55,-165 649.55,-165 649.55,-165 1634.3,-165 1634.3,-165"/>
<polygon fill="black" stroke="black" points="1634.3,-168.5 1644.3,-165 1634.3,-161.5 1634.3,-168.5"/>
</g>
<!-- TextHRefDialogComponent -->
<g id="node18" class="node">
<title>TextHRefDialogComponent</title>
<polygon fill="#8dd3c7" stroke="black" points="518.91,-122 515.91,-126 494.91,-126 491.91,-122 343.09,-122 343.09,-86 518.91,-86 518.91,-122"/>
<text text-anchor="middle" x="431" y="-99.8" font-family="Times,serif" font-size="14.00">TextHRefDialogComponent</text>
</g>
<!-- TextHRefDialogComponent&#45;&gt;Nmce_UI_ServicesModule -->
<g id="edge18" class="edge">
<title>TextHRefDialogComponent&#45;&gt;Nmce_UI_ServicesModule</title>
<path fill="none" stroke="black" d="M489.34,-122.22C489.34,-140.83 489.34,-167 489.34,-167 489.34,-167 1634.28,-167 1634.28,-167"/>
<polygon fill="black" stroke="black" points="1634.28,-170.5 1644.28,-167 1634.28,-163.5 1634.28,-170.5"/>
</g>
<!-- TextInputComponent -->
<g id="node19" class="node">
<title>TextInputComponent</title>
<polygon fill="#8dd3c7" stroke="black" points="325.04,-122 322.04,-126 301.04,-126 298.04,-122 188.96,-122 188.96,-86 325.04,-86 325.04,-122"/>
<text text-anchor="middle" x="257" y="-99.8" font-family="Times,serif" font-size="14.00">TextInputComponent</text>
</g>
<!-- TextInputComponent&#45;&gt;Nmce_UI_ServicesModule -->
<g id="edge19" class="edge">
<title>TextInputComponent&#45;&gt;Nmce_UI_ServicesModule</title>
<path fill="none" stroke="black" d="M257,-122.11C257,-141.34 257,-169 257,-169 257,-169 1634.3,-169 1634.3,-169"/>
<polygon fill="black" stroke="black" points="1634.3,-172.5 1644.3,-169 1634.3,-165.5 1634.3,-172.5"/>
</g>
<!-- TimePickerComponent -->
<g id="node20" class="node">
<title>TimePickerComponent</title>
<polygon fill="#8dd3c7" stroke="black" points="170.14,-122 167.14,-126 146.14,-126 143.14,-122 23.86,-122 23.86,-86 170.14,-86 170.14,-122"/>
<text text-anchor="middle" x="97" y="-99.8" font-family="Times,serif" font-size="14.00">TimePickerComponent</text>
</g>
<!-- TimePickerComponent&#45;&gt;Nmce_UI_ServicesModule -->
<g id="edge20" class="edge">
<title>TimePickerComponent&#45;&gt;Nmce_UI_ServicesModule</title>
<path fill="none" stroke="black" d="M97,-122.22C97,-142.37 97,-172 97,-172 97,-172 1634.41,-172 1634.41,-172"/>
<polygon fill="black" stroke="black" points="1634.41,-175.5 1644.41,-172 1634.41,-168.5 1634.41,-175.5"/>
</g>
<!-- ConfirmComponent  -->
<g id="node22" class="node">
<title>ConfirmComponent </title>
<polygon fill="#fb8072" stroke="black" points="3224.27,-252 3091.73,-252 3091.73,-216 3224.27,-216 3224.27,-252"/>
<text text-anchor="middle" x="3158" y="-229.8" font-family="Times,serif" font-size="14.00">ConfirmComponent </text>
</g>
<!-- Nmce_UI_ServicesModule&#45;&gt;ConfirmComponent  -->
<g id="edge21" class="edge">
<title>Nmce_UI_ServicesModule&#45;&gt;ConfirmComponent </title>
<path fill="none" stroke="black" stroke-dasharray="5,2" d="M1813.72,-174C2112.01,-174 3095.75,-174 3095.75,-174 3095.75,-174 3095.75,-206 3095.75,-206"/>
<polygon fill="black" stroke="black" points="3092.25,-206 3095.75,-216 3099.25,-206 3092.25,-206"/>
</g>
<!-- DataComponentDialog  -->
<g id="node23" class="node">
<title>DataComponentDialog </title>
<polygon fill="#fb8072" stroke="black" points="3073.86,-252 2924.14,-252 2924.14,-216 3073.86,-216 3073.86,-252"/>
<text text-anchor="middle" x="2999" y="-229.8" font-family="Times,serif" font-size="14.00">DataComponentDialog </text>
</g>
<!-- Nmce_UI_ServicesModule&#45;&gt;DataComponentDialog  -->
<g id="edge22" class="edge">
<title>Nmce_UI_ServicesModule&#45;&gt;DataComponentDialog </title>
<path fill="none" stroke="black" stroke-dasharray="5,2" d="M1813.96,-176C2102.04,-176 3023.89,-176 3023.89,-176 3023.89,-176 3023.89,-205.97 3023.89,-205.97"/>
<polygon fill="black" stroke="black" points="3020.39,-205.97 3023.89,-215.97 3027.39,-205.97 3020.39,-205.97"/>
</g>
<!-- DateHourRangePickerComponent  -->
<g id="node24" class="node">
<title>DateHourRangePickerComponent </title>
<polygon fill="#fb8072" stroke="black" points="2906.56,-252 2695.44,-252 2695.44,-216 2906.56,-216 2906.56,-252"/>
<text text-anchor="middle" x="2801" y="-229.8" font-family="Times,serif" font-size="14.00">DateHourRangePickerComponent </text>
</g>
<!-- Nmce_UI_ServicesModule&#45;&gt;DateHourRangePickerComponent  -->
<g id="edge23" class="edge">
<title>Nmce_UI_ServicesModule&#45;&gt;DateHourRangePickerComponent </title>
<path fill="none" stroke="black" stroke-dasharray="5,2" d="M1813.97,-178C2053.29,-178 2715.61,-178 2715.61,-178 2715.61,-178 2715.61,-205.97 2715.61,-205.97"/>
<polygon fill="black" stroke="black" points="2712.11,-205.97 2715.61,-215.97 2719.11,-205.97 2712.11,-205.97"/>
</g>
<!-- DateRangePickerComponent  -->
<g id="node25" class="node">
<title>DateRangePickerComponent </title>
<polygon fill="#fb8072" stroke="black" points="2677.29,-252 2494.71,-252 2494.71,-216 2677.29,-216 2677.29,-252"/>
<text text-anchor="middle" x="2586" y="-229.8" font-family="Times,serif" font-size="14.00">DateRangePickerComponent </text>
</g>
<!-- Nmce_UI_ServicesModule&#45;&gt;DateRangePickerComponent  -->
<g id="edge24" class="edge">
<title>Nmce_UI_ServicesModule&#45;&gt;DateRangePickerComponent </title>
<path fill="none" stroke="black" stroke-dasharray="5,2" d="M1813.8,-181C2016.9,-181 2514.44,-181 2514.44,-181 2514.44,-181 2514.44,-205.76 2514.44,-205.76"/>
<polygon fill="black" stroke="black" points="2510.94,-205.76 2514.44,-215.76 2517.94,-205.76 2510.94,-205.76"/>
</g>
<!-- HtmlFrameDialogComponent  -->
<g id="node26" class="node">
<title>HtmlFrameDialogComponent </title>
<polygon fill="#fb8072" stroke="black" points="2476.98,-252 2289.02,-252 2289.02,-216 2476.98,-216 2476.98,-252"/>
<text text-anchor="middle" x="2383" y="-229.8" font-family="Times,serif" font-size="14.00">HtmlFrameDialogComponent </text>
</g>
<!-- Nmce_UI_ServicesModule&#45;&gt;HtmlFrameDialogComponent  -->
<g id="edge25" class="edge">
<title>Nmce_UI_ServicesModule&#45;&gt;HtmlFrameDialogComponent </title>
<path fill="none" stroke="black" stroke-dasharray="5,2" d="M1813.71,-183C1975.75,-183 2313.7,-183 2313.7,-183 2313.7,-183 2313.7,-205.88 2313.7,-205.88"/>
<polygon fill="black" stroke="black" points="2310.2,-205.88 2313.7,-215.88 2317.2,-205.88 2310.2,-205.88"/>
</g>
<!-- HtmlHRefFrameDialogComponent  -->
<g id="node27" class="node">
<title>HtmlHRefFrameDialogComponent </title>
<polygon fill="#fb8072" stroke="black" points="2270.79,-252 2053.21,-252 2053.21,-216 2270.79,-216 2270.79,-252"/>
<text text-anchor="middle" x="2162" y="-229.8" font-family="Times,serif" font-size="14.00">HtmlHRefFrameDialogComponent </text>
</g>
<!-- Nmce_UI_ServicesModule&#45;&gt;HtmlHRefFrameDialogComponent  -->
<g id="edge26" class="edge">
<title>Nmce_UI_ServicesModule&#45;&gt;HtmlHRefFrameDialogComponent </title>
<path fill="none" stroke="black" stroke-dasharray="5,2" d="M1813.78,-185C1917.44,-185 2079.24,-185 2079.24,-185 2079.24,-185 2079.24,-205.75 2079.24,-205.75"/>
<polygon fill="black" stroke="black" points="2075.74,-205.75 2079.24,-215.75 2082.74,-205.75 2075.74,-205.75"/>
</g>
<!-- LocalTextEditorDialogComponent  -->
<g id="node28" class="node">
<title>LocalTextEditorDialogComponent </title>
<polygon fill="#fb8072" stroke="black" points="2034.96,-252 1819.04,-252 1819.04,-216 2034.96,-216 2034.96,-252"/>
<text text-anchor="middle" x="1927" y="-229.8" font-family="Times,serif" font-size="14.00">LocalTextEditorDialogComponent </text>
</g>
<!-- Nmce_UI_ServicesModule&#45;&gt;LocalTextEditorDialogComponent  -->
<g id="edge27" class="edge">
<title>Nmce_UI_ServicesModule&#45;&gt;LocalTextEditorDialogComponent </title>
<path fill="none" stroke="black" stroke-dasharray="5,2" d="M1807.66,-187.11C1807.66,-206.34 1807.66,-234 1807.66,-234 1807.66,-234 1809.11,-234 1809.11,-234"/>
<polygon fill="black" stroke="black" points="1809.11,-237.5 1819.11,-234 1809.11,-230.5 1809.11,-237.5"/>
</g>
<!-- LogDialogComponent  -->
<g id="node29" class="node">
<title>LogDialogComponent </title>
<polygon fill="#fb8072" stroke="black" points="1801.99,-252 1656.01,-252 1656.01,-216 1801.99,-216 1801.99,-252"/>
<text text-anchor="middle" x="1729" y="-229.8" font-family="Times,serif" font-size="14.00">LogDialogComponent </text>
</g>
<!-- Nmce_UI_ServicesModule&#45;&gt;LogDialogComponent  -->
<g id="edge28" class="edge">
<title>Nmce_UI_ServicesModule&#45;&gt;LogDialogComponent </title>
<path fill="none" stroke="black" stroke-dasharray="5,2" d="M1729,-187.11C1729,-187.11 1729,-205.99 1729,-205.99"/>
<polygon fill="black" stroke="black" points="1725.5,-205.99 1729,-215.99 1732.5,-205.99 1725.5,-205.99"/>
</g>
<!-- LogSnackComponent  -->
<g id="node30" class="node">
<title>LogSnackComponent </title>
<polygon fill="#fb8072" stroke="black" points="1637.6,-252 1496.4,-252 1496.4,-216 1637.6,-216 1637.6,-252"/>
<text text-anchor="middle" x="1567" y="-229.8" font-family="Times,serif" font-size="14.00">LogSnackComponent </text>
</g>
<!-- Nmce_UI_ServicesModule&#45;&gt;LogSnackComponent  -->
<g id="edge29" class="edge">
<title>Nmce_UI_ServicesModule&#45;&gt;LogSnackComponent </title>
<path fill="none" stroke="black" stroke-dasharray="5,2" d="M1650.34,-187.11C1650.34,-206.34 1650.34,-234 1650.34,-234 1650.34,-234 1647.68,-234 1647.68,-234"/>
<polygon fill="black" stroke="black" points="1647.68,-230.5 1637.68,-234 1647.68,-237.5 1647.68,-230.5"/>
</g>
<!-- NotificationsComponent  -->
<g id="node31" class="node">
<title>NotificationsComponent </title>
<polygon fill="#fb8072" stroke="black" points="1477.93,-252 1320.07,-252 1320.07,-216 1477.93,-216 1477.93,-252"/>
<text text-anchor="middle" x="1399" y="-229.8" font-family="Times,serif" font-size="14.00">NotificationsComponent </text>
</g>
<!-- Nmce_UI_ServicesModule&#45;&gt;NotificationsComponent  -->
<g id="edge30" class="edge">
<title>Nmce_UI_ServicesModule&#45;&gt;NotificationsComponent </title>
<path fill="none" stroke="black" stroke-dasharray="5,2" d="M1644.29,-185C1552.5,-185 1418.98,-185 1418.98,-185 1418.98,-185 1418.98,-205.75 1418.98,-205.75"/>
<polygon fill="black" stroke="black" points="1415.48,-205.75 1418.98,-215.75 1422.48,-205.75 1415.48,-205.75"/>
</g>
<!-- OptionsComponent  -->
<g id="node32" class="node">
<title>OptionsComponent </title>
<polygon fill="#fb8072" stroke="black" points="1301.66,-252 1172.34,-252 1172.34,-216 1301.66,-216 1301.66,-252"/>
<text text-anchor="middle" x="1237" y="-229.8" font-family="Times,serif" font-size="14.00">OptionsComponent </text>
</g>
<!-- Nmce_UI_ServicesModule&#45;&gt;OptionsComponent  -->
<g id="edge31" class="edge">
<title>Nmce_UI_ServicesModule&#45;&gt;OptionsComponent </title>
<path fill="none" stroke="black" stroke-dasharray="5,2" d="M1644.41,-183C1507.56,-183 1252.77,-183 1252.77,-183 1252.77,-183 1252.77,-205.88 1252.77,-205.88"/>
<polygon fill="black" stroke="black" points="1249.27,-205.88 1252.77,-215.88 1256.27,-205.88 1249.27,-205.88"/>
</g>
<!-- PasswordsInputComponent  -->
<g id="node33" class="node">
<title>PasswordsInputComponent </title>
<polygon fill="#fb8072" stroke="black" points="1154.98,-252 981.02,-252 981.02,-216 1154.98,-216 1154.98,-252"/>
<text text-anchor="middle" x="1068" y="-229.8" font-family="Times,serif" font-size="14.00">PasswordsInputComponent </text>
</g>
<!-- Nmce_UI_ServicesModule&#45;&gt;PasswordsInputComponent  -->
<g id="edge32" class="edge">
<title>Nmce_UI_ServicesModule&#45;&gt;PasswordsInputComponent </title>
<path fill="none" stroke="black" stroke-dasharray="5,2" d="M1644.25,-181C1471.17,-181 1093.26,-181 1093.26,-181 1093.26,-181 1093.26,-205.76 1093.26,-205.76"/>
<polygon fill="black" stroke="black" points="1089.76,-205.76 1093.26,-215.76 1096.76,-205.76 1089.76,-205.76"/>
</g>
<!-- TextDialogComponent  -->
<g id="node34" class="node">
<title>TextDialogComponent </title>
<polygon fill="#fb8072" stroke="black" points="963.09,-252 814.91,-252 814.91,-216 963.09,-216 963.09,-252"/>
<text text-anchor="middle" x="889" y="-229.8" font-family="Times,serif" font-size="14.00">TextDialogComponent </text>
</g>
<!-- Nmce_UI_ServicesModule&#45;&gt;TextDialogComponent  -->
<g id="edge33" class="edge">
<title>Nmce_UI_ServicesModule&#45;&gt;TextDialogComponent </title>
<path fill="none" stroke="black" stroke-dasharray="5,2" d="M1644.18,-178C1437.69,-178 925.73,-178 925.73,-178 925.73,-178 925.73,-205.97 925.73,-205.97"/>
<polygon fill="black" stroke="black" points="922.23,-205.97 925.73,-215.97 929.23,-205.97 922.23,-205.97"/>
</g>
<!-- TextHRefDialogComponent  -->
<g id="node35" class="node">
<title>TextHRefDialogComponent </title>
<polygon fill="#fb8072" stroke="black" points="796.41,-252 617.59,-252 617.59,-216 796.41,-216 796.41,-252"/>
<text text-anchor="middle" x="707" y="-229.8" font-family="Times,serif" font-size="14.00">TextHRefDialogComponent </text>
</g>
<!-- Nmce_UI_ServicesModule&#45;&gt;TextHRefDialogComponent  -->
<g id="edge34" class="edge">
<title>Nmce_UI_ServicesModule&#45;&gt;TextHRefDialogComponent </title>
<path fill="none" stroke="black" stroke-dasharray="5,2" d="M1644.11,-176C1405.85,-176 748.23,-176 748.23,-176 748.23,-176 748.23,-205.97 748.23,-205.97"/>
<polygon fill="black" stroke="black" points="744.73,-205.97 748.23,-215.97 751.73,-205.97 744.73,-205.97"/>
</g>
<!-- TextInputComponent  -->
<g id="node36" class="node">
<title>TextInputComponent </title>
<polygon fill="#fb8072" stroke="black" points="600.04,-252 459.96,-252 459.96,-216 600.04,-216 600.04,-252"/>
<text text-anchor="middle" x="530" y="-229.8" font-family="Times,serif" font-size="14.00">TextInputComponent </text>
</g>
<!-- Nmce_UI_ServicesModule&#45;&gt;TextInputComponent  -->
<g id="edge35" class="edge">
<title>Nmce_UI_ServicesModule&#45;&gt;TextInputComponent </title>
<path fill="none" stroke="black" stroke-dasharray="5,2" d="M1644.12,-174C1376.53,-174 568.24,-174 568.24,-174 568.24,-174 568.24,-206 568.24,-206"/>
<polygon fill="black" stroke="black" points="564.74,-206 568.24,-216 571.74,-206 564.74,-206"/>
</g>
</g>
</svg>
