<?xml version="1.0" encoding="UTF-8" standalone="no"?>
<!DOCTYPE svg PUBLIC "-//W3C//DTD SVG 1.1//EN"
 "http://www.w3.org/Graphics/SVG/1.1/DTD/svg11.dtd">
<!-- Generated by graphviz version 2.47.0 (20210316.0004)
 -->
<!-- Title: dependencies Pages: 1 -->
<svg width="662pt" height="284pt"
 viewBox="0.00 0.00 662.00 284.00" xmlns="http://www.w3.org/2000/svg" xmlns:xlink="http://www.w3.org/1999/xlink">
<g id="graph0" class="graph" transform="scale(1 1) rotate(0) translate(4 280)">
<title>dependencies</title>
<polygon fill="white" stroke="transparent" points="-4,4 -4,-280 658,-280 658,4 -4,4"/>
<text text-anchor="start" x="306.01" y="-42.4" font-family="Times-12" font-weight="bold" font-size="14.00">Legend</text>
<polygon fill="#ffffb3" stroke="transparent" points="93,-10 93,-30 113,-30 113,-10 93,-10"/>
<text text-anchor="start" x="116.63" y="-15.4" font-family="Times-12" font-size="14.00"> &#160;Declarations</text>
<polygon fill="#8dd3c7" stroke="transparent" points="206,-10 206,-30 226,-30 226,-10 206,-10"/>
<text text-anchor="start" x="229.73" y="-15.4" font-family="Times-12" font-size="14.00"> &#160;Module</text>
<polygon fill="#80b1d3" stroke="transparent" points="292,-10 292,-30 312,-30 312,-10 292,-10"/>
<text text-anchor="start" x="315.78" y="-15.4" font-family="Times-12" font-size="14.00"> &#160;Bootstrap</text>
<polygon fill="#fdb462" stroke="transparent" points="389,-10 389,-30 409,-30 409,-10 389,-10"/>
<text text-anchor="start" x="412.67" y="-15.4" font-family="Times-12" font-size="14.00"> &#160;Providers</text>
<polygon fill="#fb8072" stroke="transparent" points="485,-10 485,-30 505,-30 505,-10 485,-10"/>
<text text-anchor="start" x="508.73" y="-15.4" font-family="Times-12" font-size="14.00"> &#160;Exports</text>
<g id="clust1" class="cluster">
<title>cluster_NmceHtmlEditorModule</title>
<polygon fill="none" stroke="black" stroke-dasharray="1,5" points="8,-70 8,-268 646,-268 646,-70 8,-70"/>
</g>
<g id="clust3" class="cluster">
<title>cluster_NmceHtmlEditorModule_imports</title>
<polygon fill="none" stroke="black" points="16,-78 16,-130 638,-130 638,-78 16,-78"/>
</g>
<g id="clust4" class="cluster">
<title>cluster_NmceHtmlEditorModule_exports</title>
<polygon fill="none" stroke="black" points="106,-208 106,-260 548,-260 548,-208 106,-208"/>
</g>
<!-- EmailConfirmComponent -->
<g id="node1" class="node">
<title>EmailConfirmComponent</title>
<polygon fill="#8dd3c7" stroke="black" points="630.21,-122 627.21,-126 606.21,-126 603.21,-122 467.79,-122 467.79,-86 630.21,-86 630.21,-122"/>
<text text-anchor="middle" x="549" y="-99.8" font-family="Times,serif" font-size="14.00">EmailConfirmComponent</text>
</g>
<!-- NmceHtmlEditorModule -->
<g id="node4" class="node">
<title>NmceHtmlEditorModule</title>
<polygon fill="#8dd3c7" stroke="black" points="409.25,-187 406.25,-191 385.25,-191 382.25,-187 252.75,-187 252.75,-151 409.25,-151 409.25,-187"/>
<text text-anchor="middle" x="331" y="-164.8" font-family="Times,serif" font-size="14.00">NmceHtmlEditorModule</text>
</g>
<!-- EmailConfirmComponent&#45;&gt;NmceHtmlEditorModule -->
<g id="edge1" class="edge">
<title>EmailConfirmComponent&#45;&gt;NmceHtmlEditorModule</title>
<path fill="none" stroke="black" d="M503.88,-122.11C503.88,-141.34 503.88,-169 503.88,-169 503.88,-169 419.34,-169 419.34,-169"/>
<polygon fill="black" stroke="black" points="419.34,-165.5 409.34,-169 419.34,-172.5 419.34,-165.5"/>
</g>
<!-- LocalDocHtmlEditorDialogComponent -->
<g id="node2" class="node">
<title>LocalDocHtmlEditorDialogComponent</title>
<polygon fill="#8dd3c7" stroke="black" points="450.4,-122 447.4,-126 426.4,-126 423.4,-122 211.6,-122 211.6,-86 450.4,-86 450.4,-122"/>
<text text-anchor="middle" x="331" y="-99.8" font-family="Times,serif" font-size="14.00">LocalDocHtmlEditorDialogComponent</text>
</g>
<!-- LocalDocHtmlEditorDialogComponent&#45;&gt;NmceHtmlEditorModule -->
<g id="edge2" class="edge">
<title>LocalDocHtmlEditorDialogComponent&#45;&gt;NmceHtmlEditorModule</title>
<path fill="none" stroke="black" d="M331,-122.11C331,-122.11 331,-140.99 331,-140.99"/>
<polygon fill="black" stroke="black" points="327.5,-140.99 331,-150.99 334.5,-140.99 327.5,-140.99"/>
</g>
<!-- Nmce_UI_ServicesModule -->
<g id="node3" class="node">
<title>Nmce_UI_ServicesModule</title>
<polygon fill="#8dd3c7" stroke="black" points="193.67,-122 190.67,-126 169.67,-126 166.67,-122 24.33,-122 24.33,-86 193.67,-86 193.67,-122"/>
<text text-anchor="middle" x="109" y="-99.8" font-family="Times,serif" font-size="14.00">Nmce_UI_ServicesModule</text>
</g>
<!-- Nmce_UI_ServicesModule&#45;&gt;NmceHtmlEditorModule -->
<g id="edge3" class="edge">
<title>Nmce_UI_ServicesModule&#45;&gt;NmceHtmlEditorModule</title>
<path fill="none" stroke="black" d="M153.82,-122.11C153.82,-141.34 153.82,-169 153.82,-169 153.82,-169 242.51,-169 242.51,-169"/>
<polygon fill="black" stroke="black" points="242.51,-172.5 252.51,-169 242.51,-165.5 242.51,-172.5"/>
</g>
<!-- EmailConfirmComponent  -->
<g id="node5" class="node">
<title>EmailConfirmComponent </title>
<polygon fill="#fb8072" stroke="black" points="539.71,-252 374.29,-252 374.29,-216 539.71,-216 539.71,-252"/>
<text text-anchor="middle" x="457" y="-229.8" font-family="Times,serif" font-size="14.00">EmailConfirmComponent </text>
</g>
<!-- NmceHtmlEditorModule&#45;&gt;EmailConfirmComponent  -->
<g id="edge4" class="edge">
<title>NmceHtmlEditorModule&#45;&gt;EmailConfirmComponent </title>
<path fill="none" stroke="black" stroke-dasharray="5,2" d="M391.76,-187.11C391.76,-187.11 391.76,-205.99 391.76,-205.99"/>
<polygon fill="black" stroke="black" points="388.26,-205.99 391.76,-215.99 395.26,-205.99 388.26,-205.99"/>
</g>
<!-- LocalDocHtmlEditorDialogComponent  -->
<g id="node6" class="node">
<title>LocalDocHtmlEditorDialogComponent </title>
<polygon fill="#fb8072" stroke="black" points="355.9,-252 114.1,-252 114.1,-216 355.9,-216 355.9,-252"/>
<text text-anchor="middle" x="235" y="-229.8" font-family="Times,serif" font-size="14.00">LocalDocHtmlEditorDialogComponent </text>
</g>
<!-- NmceHtmlEditorModule&#45;&gt;LocalDocHtmlEditorDialogComponent  -->
<g id="edge5" class="edge">
<title>NmceHtmlEditorModule&#45;&gt;LocalDocHtmlEditorDialogComponent </title>
<path fill="none" stroke="black" stroke-dasharray="5,2" d="M304.29,-187.11C304.29,-187.11 304.29,-205.99 304.29,-205.99"/>
<polygon fill="black" stroke="black" points="300.79,-205.99 304.29,-215.99 307.79,-205.99 300.79,-205.99"/>
</g>
</g>
</svg>
