<?xml version="1.0" encoding="UTF-8" standalone="no"?>
<!DOCTYPE svg PUBLIC "-//W3C//DTD SVG 1.1//EN"
 "http://www.w3.org/Graphics/SVG/1.1/DTD/svg11.dtd">
<!-- Generated by graphviz version 2.47.0 (20210316.0004)
 -->
<!-- Title: dependencies Pages: 1 -->
<svg width="504pt" height="284pt"
 viewBox="0.00 0.00 504.00 284.00" xmlns="http://www.w3.org/2000/svg" xmlns:xlink="http://www.w3.org/1999/xlink">
<g id="graph0" class="graph" transform="scale(1 1) rotate(0) translate(4 280)">
<title>dependencies</title>
<polygon fill="white" stroke="transparent" points="-4,4 -4,-280 500,-280 500,4 -4,4"/>
<text text-anchor="start" x="227.01" y="-42.4" font-family="Times-12" font-weight="bold" font-size="14.00">Legend</text>
<polygon fill="#ffffb3" stroke="transparent" points="14,-10 14,-30 34,-30 34,-10 14,-10"/>
<text text-anchor="start" x="37.63" y="-15.4" font-family="Times-12" font-size="14.00"> &#160;Declarations</text>
<polygon fill="#8dd3c7" stroke="transparent" points="127,-10 127,-30 147,-30 147,-10 127,-10"/>
<text text-anchor="start" x="150.73" y="-15.4" font-family="Times-12" font-size="14.00"> &#160;Module</text>
<polygon fill="#80b1d3" stroke="transparent" points="213,-10 213,-30 233,-30 233,-10 213,-10"/>
<text text-anchor="start" x="236.78" y="-15.4" font-family="Times-12" font-size="14.00"> &#160;Bootstrap</text>
<polygon fill="#fdb462" stroke="transparent" points="310,-10 310,-30 330,-30 330,-10 310,-10"/>
<text text-anchor="start" x="333.67" y="-15.4" font-family="Times-12" font-size="14.00"> &#160;Providers</text>
<polygon fill="#fb8072" stroke="transparent" points="406,-10 406,-30 426,-30 426,-10 406,-10"/>
<text text-anchor="start" x="429.73" y="-15.4" font-family="Times-12" font-size="14.00"> &#160;Exports</text>
<g id="clust1" class="cluster">
<title>cluster_NmceDirectivesModule</title>
<polygon fill="none" stroke="black" stroke-dasharray="1,5" points="94,-70 94,-268 402,-268 402,-70 94,-70"/>
</g>
<g id="clust3" class="cluster">
<title>cluster_NmceDirectivesModule_imports</title>
<polygon fill="none" stroke="black" points="106,-78 106,-130 390,-130 390,-78 106,-78"/>
</g>
<g id="clust4" class="cluster">
<title>cluster_NmceDirectivesModule_exports</title>
<polygon fill="none" stroke="black" points="102,-208 102,-260 394,-260 394,-208 102,-208"/>
</g>
<!-- AutofocusDirective -->
<g id="node1" class="node">
<title>AutofocusDirective</title>
<polygon fill="#8dd3c7" stroke="black" points="382.4,-122 379.4,-126 358.4,-126 355.4,-122 255.6,-122 255.6,-86 382.4,-86 382.4,-122"/>
<text text-anchor="middle" x="319" y="-99.8" font-family="Times,serif" font-size="14.00">AutofocusDirective</text>
</g>
<!-- NmceDirectivesModule -->
<g id="node3" class="node">
<title>NmceDirectivesModule</title>
<polygon fill="#8dd3c7" stroke="black" points="321,-187 318,-191 297,-191 294,-187 171,-187 171,-151 321,-151 321,-187"/>
<text text-anchor="middle" x="246" y="-164.8" font-family="Times,serif" font-size="14.00">NmceDirectivesModule</text>
</g>
<!-- AutofocusDirective&#45;&gt;NmceDirectivesModule -->
<g id="edge1" class="edge">
<title>AutofocusDirective&#45;&gt;NmceDirectivesModule</title>
<path fill="none" stroke="black" d="M288.53,-122.11C288.53,-122.11 288.53,-140.99 288.53,-140.99"/>
<polygon fill="black" stroke="black" points="285.03,-140.99 288.53,-150.99 292.03,-140.99 285.03,-140.99"/>
</g>
<!-- ScrollIntoDirective -->
<g id="node2" class="node">
<title>ScrollIntoDirective</title>
<polygon fill="#8dd3c7" stroke="black" points="238.07,-122 235.07,-126 214.07,-126 211.07,-122 113.93,-122 113.93,-86 238.07,-86 238.07,-122"/>
<text text-anchor="middle" x="176" y="-99.8" font-family="Times,serif" font-size="14.00">ScrollIntoDirective</text>
</g>
<!-- ScrollIntoDirective&#45;&gt;NmceDirectivesModule -->
<g id="edge2" class="edge">
<title>ScrollIntoDirective&#45;&gt;NmceDirectivesModule</title>
<path fill="none" stroke="black" d="M204.39,-122.11C204.39,-122.11 204.39,-140.99 204.39,-140.99"/>
<polygon fill="black" stroke="black" points="200.89,-140.99 204.39,-150.99 207.89,-140.99 200.89,-140.99"/>
</g>
<!-- AutofocusDirective  -->
<g id="node4" class="node">
<title>AutofocusDirective </title>
<polygon fill="#fb8072" stroke="black" points="385.9,-252 256.1,-252 256.1,-216 385.9,-216 385.9,-252"/>
<text text-anchor="middle" x="321" y="-229.8" font-family="Times,serif" font-size="14.00">AutofocusDirective </text>
</g>
<!-- NmceDirectivesModule&#45;&gt;AutofocusDirective  -->
<g id="edge3" class="edge">
<title>NmceDirectivesModule&#45;&gt;AutofocusDirective </title>
<path fill="none" stroke="black" stroke-dasharray="5,2" d="M288.65,-187.11C288.65,-187.11 288.65,-205.99 288.65,-205.99"/>
<polygon fill="black" stroke="black" points="285.15,-205.99 288.65,-215.99 292.15,-205.99 285.15,-205.99"/>
</g>
<!-- ScrollIntoDirective  -->
<g id="node5" class="node">
<title>ScrollIntoDirective </title>
<polygon fill="#fb8072" stroke="black" points="237.57,-252 110.43,-252 110.43,-216 237.57,-216 237.57,-252"/>
<text text-anchor="middle" x="174" y="-229.8" font-family="Times,serif" font-size="14.00">ScrollIntoDirective </text>
</g>
<!-- NmceDirectivesModule&#45;&gt;ScrollIntoDirective  -->
<g id="edge4" class="edge">
<title>NmceDirectivesModule&#45;&gt;ScrollIntoDirective </title>
<path fill="none" stroke="black" stroke-dasharray="5,2" d="M204.27,-187.11C204.27,-187.11 204.27,-205.99 204.27,-205.99"/>
<polygon fill="black" stroke="black" points="200.77,-205.99 204.27,-215.99 207.77,-205.99 200.77,-205.99"/>
</g>
</g>
</svg>
